<?xml version="1.0" encoding="utf-8"?>
<!-- Generator: Adobe Illustrator 23.0.6, SVG Export Plug-In . SVG Version: 6.00 Build 0)  -->
<svg version="1.1"
	 id="Layer_1" xmlns:cc="http://creativecommons.org/ns#" xmlns:dc="http://purl.org/dc/elements/1.1/" xmlns:inkscape="http://www.inkscape.org/namespaces/inkscape" xmlns:rdf="http://www.w3.org/1999/02/22-rdf-syntax-ns#" xmlns:sodipodi="http://sodipodi.sourceforge.net/DTD/sodipodi-0.dtd" xmlns:svg="http://www.w3.org/2000/svg"
	 xmlns="http://www.w3.org/2000/svg" xmlns:xlink="http://www.w3.org/1999/xlink" x="0px" y="0px" viewBox="0 0 78 72"
	 style="enable-background:new 0 0 78 72;" xml:space="preserve">
<g transform="translate(0,-952.36218)">
	<path d="M20.3,952.4c-5.2,0-10.4,2.1-14.4,6.4c-7.9,8.5-7.9,22.1,0,30.6l31.6,34.3c0.7,0.8,2,0.9,2.8,0.1c0,0,0.1-0.1,0.1-0.1
		c10.6-11.4,21.1-22.8,31.7-34.3c7.9-8.5,7.9-22.1,0-30.6c-7.9-8.5-20.8-8.5-28.7,0l-4.3,4.7l-4.4-4.8
		C30.7,954.5,25.5,952.4,20.3,952.4z M20.3,956.3c4.1,0,8.2,1.7,11.4,5.2l5.9,6.3c0.7,0.8,2,0.9,2.8,0.1c0,0,0.1-0.1,0.1-0.1
		l5.8-6.3c6.4-6.9,16.5-6.9,22.9,0c6.4,6.9,6.4,18.2,0,25.2c-10.1,10.9-20.2,21.8-30.2,32.7L8.8,986.7c-6.4-7-6.4-18.2,0-25.2
		C12,958,16.2,956.3,20.3,956.3z"/>
</g>
</svg>
