<?xml version="1.0" encoding="utf-8"?>
<!-- Generator: Adobe Illustrator 23.0.6, SVG Export Plug-In . SVG Version: 6.00 Build 0)  -->
<svg version="1.1" id="Layer_1" xmlns="http://www.w3.org/2000/svg" xmlns:xlink="http://www.w3.org/1999/xlink" x="0px" y="0px"
	 viewBox="0 0 17.9 17.9" style="enable-background:new 0 0 17.9 17.9;" xml:space="preserve">
<title>Ресурс 31</title>
<g>
	<g>
		<path d="M10.1,17.9H9.9c-0.7-0.1-1.2-0.6-1.4-1.2L7,10.9L1.2,9.3C0.6,9.1,0.1,8.6,0,7.9c-0.1-0.7,0.3-1.4,1-1.6l14.7-6.2
			C16,0,16.3,0,16.5,0c0.7,0.1,1.2,0.6,1.3,1.3c0,0.3,0,0.5-0.1,0.8l-6.2,14.8C11.3,17.5,10.8,17.9,10.1,17.9z M10.3,16.2L10.3,16.2
			z M2,7.7l5.5,1.5c0.1,0,0.2,0.1,0.3,0.1c0.3,0.2,0.6,0.4,0.7,0.7c0,0.1,0.1,0.2,0.1,0.3l1.5,5.5L16,1.8L2,7.7z M7,10.8L7,10.8z
			 M1.6,7.6L1.6,7.6z"/>
	</g>
</g>
<rect x="2" y="6.4" width="12.7" height="2.3"/>
<rect x="5.5" y="7.8" width="8.1" height="2.3"/>
<rect x="4.9" y="7.6" transform="matrix(0.4056 -0.9141 0.9141 0.4056 -0.518 16.7208)" width="15.4" height="2.3"/>
<rect x="5" y="6.9" transform="matrix(0.4056 -0.9141 0.9141 0.4056 -0.6935 15.0962)" width="12.6" height="2.3"/>
<rect x="6" y="5.9" transform="matrix(0.4056 -0.9141 0.9141 0.4056 -0.3763 13.5322)" width="8.4" height="2.3"/>
<rect x="4.3" y="4.5" transform="matrix(0.9284 -0.3715 0.3715 0.9284 -1.4888 3.5683)" width="8.4" height="2.3"/>
</svg>
