<?xml version="1.0" encoding="utf-8"?>
<!-- Generator: Adobe Illustrator 23.0.6, SVG Export Plug-In . SVG Version: 6.00 Build 0)  -->
<svg version="1.1" id="Layer_1" xmlns="http://www.w3.org/2000/svg" xmlns:xlink="http://www.w3.org/1999/xlink" x="0px" y="0px"
	 viewBox="0 0 21.3 21.3" style="enable-background:new 0 0 21.3 21.3;" xml:space="preserve">
<title>Essential UI IconArtboard 46</title>
<g>
	<path d="M21.2,20.5l-8-8c2.7-3.1,2.4-7.9-0.7-10.6S4.6-0.6,1.9,2.6s-2.4,7.9,0.7,10.6c2.8,2.5,7.1,2.5,9.9,0l8,8
		c0.1,0.1,0.2,0.1,0.4,0.1c0.1,0,0.3-0.1,0.4-0.1C21.4,21,21.4,20.7,21.2,20.5C21.2,20.5,21.2,20.5,21.2,20.5z M1.1,7.6
		C1.1,4,4,1.1,7.6,1.1s6.5,2.9,6.5,6.5s-2.9,6.5-6.5,6.5C4,14,1.1,11.1,1.1,7.6z M11.1,7.6c0,0.3-0.2,0.5-0.5,0.5H8.1v2.5
		c0,0.3-0.2,0.5-0.5,0.5s-0.5-0.2-0.5-0.5V8.1H4.6c-0.3,0-0.5-0.2-0.5-0.5s0.2-0.5,0.5-0.5h2.5V4.6c0-0.3,0.2-0.5,0.5-0.5
		s0.5,0.2,0.5,0.5v2.5h2.5C10.8,7.1,11.1,7.3,11.1,7.6z"/>
</g>
</svg>
