<?xml version="1.0" encoding="utf-8"?>
<!-- Generator: Adobe Illustrator 23.0.6, SVG Export Plug-In . SVG Version: 6.00 Build 0)  -->
<svg version="1.1"
	 id="Layer_1" xmlns:cc="http://creativecommons.org/ns#" xmlns:dc="http://purl.org/dc/elements/1.1/" xmlns:inkscape="http://www.inkscape.org/namespaces/inkscape" xmlns:rdf="http://www.w3.org/1999/02/22-rdf-syntax-ns#" xmlns:sodipodi="http://sodipodi.sourceforge.net/DTD/sodipodi-0.dtd" xmlns:svg="http://www.w3.org/2000/svg"
	 xmlns="http://www.w3.org/2000/svg" xmlns:xlink="http://www.w3.org/1999/xlink" x="0px" y="0px" viewBox="0 0 40 40"
	 style="enable-background:new 0 0 40 40;" xml:space="preserve">
<path d="M20,0c-0.4,0-0.8,0.3-0.9,0.6l-5.2,12.6l-13,1.3c-0.5,0.1-1,0.5-0.9,1.1c0,0.2,0.1,0.5,0.3,0.6l9.9,9.1L7.3,38.7
	c-0.1,0.5,0.2,1.1,0.8,1.2c0.3,0.1,0.5,0,0.7-0.1l11.2-7l11.2,7c0.5,0.3,1.1,0.1,1.4-0.3c0.1-0.2,0.2-0.5,0.1-0.7l-2.9-13.4l9.8-9.1
	c0.4-0.4,0.4-1,0.1-1.4c-0.2-0.2-0.4-0.3-0.6-0.3l-13-1.3L20.9,0.6C20.8,0.2,20.4,0,20,0z M20,3.6l4.5,10.9c0.1,0.3,0.5,0.6,0.8,0.6
	l11.4,1.1l-8.6,8c-0.3,0.2-0.4,0.6-0.3,0.9l2.5,11.7l-9.8-6.1c-0.3-0.2-0.7-0.2-1.1,0l-9.8,6.1l2.5-11.7c0.1-0.3,0-0.7-0.3-0.9
	l-8.6-7.9l11.4-1.1c0.4,0,0.7-0.3,0.8-0.6L20,3.6z"/>
</svg>
