<?xml version="1.0" encoding="utf-8"?>
<!-- Generator: Adobe Illustrator 23.0.6, SVG Export Plug-In . SVG Version: 6.00 Build 0)  -->
<svg version="1.1" id="Layer_1" xmlns="http://www.w3.org/2000/svg" xmlns:xlink="http://www.w3.org/1999/xlink" x="0px" y="0px"
	 viewBox="0 0 37.9 49" style="enable-background:new 0 0 37.9 49;" xml:space="preserve">
<style type="text/css">
	.st0{fill:none;stroke:#000000;stroke-width:2;stroke-miterlimit:10;}
</style>
<g>
	<g>
		<path d="M31.8,15.9l4,31.1H2l4-31.1H31.8 M32.1,13.9H5.8c-0.8,0-1.6,0.6-1.7,1.5L0,47.1c-0.1,1,0.7,1.9,1.7,1.9h34.6
			c1,0,1.8-0.9,1.7-1.9l-4.1-31.8C33.7,14.5,33,13.9,32.1,13.9L32.1,13.9z"/>
	</g>
	<g>
		<g>
			<path d="M10.7,21c0.2,0,0.3,0.2,0.3,0.3c0,0.2-0.1,0.3-0.3,0.3s-0.3-0.1-0.3-0.3C10.4,21.1,10.5,21,10.7,21 M10.7,19
				c-1.3,0-2.3,1-2.3,2.3c0,1.3,1,2.3,2.3,2.3c1.3,0,2.3-1,2.3-2.3C13,20,12,19,10.7,19L10.7,19z"/>
		</g>
		<g>
			<path d="M27.2,21c0.2,0,0.3,0.2,0.3,0.3c0,0.2-0.1,0.3-0.3,0.3s-0.3-0.1-0.3-0.3C26.9,21.1,27.1,21,27.2,21 M27.2,19
				c-1.3,0-2.3,1-2.3,2.3c0,1.3,1,2.3,2.3,2.3c1.3,0,2.3-1,2.3-2.3C29.6,20,28.5,19,27.2,19L27.2,19z"/>
		</g>
		<path class="st0" d="M10.7,19V9.3C10.7,4.7,14.4,1,19,1h0c4.6,0,8.3,3.7,8.3,8.3V19"/>
	</g>
</g>
</svg>
